<?xml version="1.0" standalone="no"?>
<!DOCTYPE svg PUBLIC "-//W3C//DTD SVG 20010904//EN"
 "http://www.w3.org/TR/2001/REC-SVG-20010904/DTD/svg10.dtd">
<svg version="1.0" xmlns="http://www.w3.org/2000/svg"
 width="2000.000000pt" height="734.000000pt" viewBox="0 0 2000.000000 734.000000"
 preserveAspectRatio="xMidYMid meet">

<g transform="translate(0.000000,734.000000) scale(0.100000,-0.100000)"
fill="#000000" stroke="none">
<path d="M2544 6390 c-115 -15 -202 -78 -234 -167 -9 -26 -15 -111 -17 -260
l-5 -223 471 0 471 0 0 -1640 0 -1640 380 0 380 0 0 1640 0 1640 473 2 472 3
0 325 0 325 -1165 1 c-641 1 -1192 -2 -1226 -6z"/>
<path d="M5300 6070 l0 -330 330 0 330 0 0 330 0 330 -330 0 -330 0 0 -330z"/>
<path d="M10020 6071 l0 -331 144 0 c127 0 147 -2 167 -19 l24 -19 3 -1621 2
-1621 375 0 375 0 2 608 3 607 109 -2 c117 -1 178 -17 214 -56 11 -12 131
-231 267 -487 136 -256 263 -487 282 -513 20 -26 56 -63 81 -83 85 -65 106
-67 510 -72 l362 -3 -2 323 -3 323 -165 5 c-139 4 -170 8 -197 24 -36 22 -23
0 -237 405 -164 310 -206 377 -274 437 l-35 30 30 22 c17 12 55 52 85 89 54
67 782 1147 794 1177 6 14 -36 16 -414 16 l-420 0 -297 -461 c-210 -325 -307
-467 -329 -480 -53 -33 -107 -43 -236 -43 l-125 -1 -5 930 -5 930 -30 60 c-34
69 -94 116 -172 135 -32 8 -189 14 -465 17 l-418 5 0 -331z"/>
<path d="M8365 5360 c-166 -27 -336 -92 -465 -180 -79 -54 -198 -166 -254
-241 l-43 -58 -5 97 c-6 110 -30 172 -90 229 -93 89 -196 105 -658 101 l-315
-3 -3 -327 -2 -328 145 0 c142 0 147 -1 170 -25 l25 -24 0 -1071 0 -1070 374
0 375 0 4 733 c3 633 6 742 20 807 76 340 237 541 512 636 73 26 93 28 225 29
139 0 147 -1 208 -29 91 -42 152 -122 180 -236 6 -25 14 -56 18 -70 4 -14 10
-383 13 -820 6 -728 8 -799 24 -840 27 -68 64 -116 116 -149 86 -55 135 -61
564 -61 l387 0 0 325 0 325 -141 0 c-77 0 -149 4 -159 10 -38 20 -40 53 -40
704 0 511 -3 650 -15 731 -67 446 -293 702 -696 790 -88 19 -386 28 -474 15z"/>
<path d="M14302 5359 c-404 -54 -758 -267 -972 -584 -303 -448 -342 -1116 -93
-1597 170 -329 452 -571 816 -697 334 -116 755 -114 1107 6 191 65 415 190
542 303 l57 51 -151 252 c-83 139 -156 258 -163 266 -11 11 -23 5 -71 -35
-198 -161 -446 -260 -676 -271 -186 -9 -347 27 -484 108 -79 46 -210 179 -257
259 -35 61 -87 203 -100 278 l-6 32 955 0 c900 0 955 1 962 18 4 9 7 127 7
262 0 215 -3 257 -23 346 -61 279 -170 490 -342 664 -164 166 -362 271 -610
325 -91 20 -393 28 -498 14z m339 -605 c87 -26 150 -63 209 -123 82 -84 143
-212 152 -321 l3 -35 -562 -3 c-365 -1 -563 1 -563 8 0 5 11 38 24 74 64 169
194 306 349 367 122 49 287 63 388 33z"/>
<path d="M17785 5323 c-245 -52 -481 -233 -625 -479 l-38 -65 -5 133 c-2 73
-10 150 -16 170 -31 98 -123 182 -230 209 -29 7 -187 13 -433 16 l-388 5 0
-331 0 -331 145 0 c142 0 147 -1 170 -25 l25 -24 0 -1071 0 -1070 374 0 375 0
3 663 c4 730 6 748 70 945 85 257 265 430 523 503 63 18 106 23 200 23 66 0
137 -3 158 -7 l37 -8 0 374 0 375 -31 6 c-56 11 -242 5 -314 -11z"/>
<path d="M4928 5304 c-5 -4 -8 -153 -8 -331 l0 -323 150 0 c137 0 152 -2 170
-20 20 -20 20 -33 20 -912 0 -539 4 -920 10 -962 24 -161 107 -253 258 -285
34 -7 191 -11 437 -11 l385 0 0 325 0 325 -141 0 c-143 0 -170 5 -185 37 -5
10 -11 443 -14 963 l-5 945 -28 60 c-44 94 -94 137 -198 171 -47 15 -109 18
-449 21 -217 3 -398 1 -402 -3z"/>
<path d="M13940 1704 l0 -176 -31 27 c-120 101 -293 99 -411 -4 -24 -22 -57
-63 -73 -92 -28 -51 -30 -60 -30 -169 0 -101 3 -121 24 -162 53 -108 148 -170
269 -176 85 -5 139 12 208 64 l44 34 0 -45 0 -45 60 0 60 0 0 460 0 460 -60 0
-60 0 0 -176z m-132 -209 c184 -77 184 -353 0 -429 -210 -88 -378 214 -211
381 60 61 137 78 211 48z"/>
<path d="M15450 1785 l0 -65 70 0 70 0 0 65 0 65 -70 0 -70 0 0 -65z"/>
<path d="M10360 1395 l0 -445 65 0 65 0 0 190 0 190 230 0 230 0 0 55 0 55
-230 0 -230 0 0 140 0 140 260 0 260 0 0 60 0 60 -325 0 -325 0 0 -445z"/>
<path d="M14980 1705 l0 -95 -45 0 -45 0 0 -55 0 -55 45 0 45 0 1 -182 c0
-259 9 -298 82 -352 36 -26 145 -33 202 -13 40 14 40 14 43 70 l3 56 -42 -14
c-58 -21 -102 -19 -133 6 l-26 20 0 205 0 204 100 0 100 0 0 55 0 55 -100 0
-100 0 0 95 0 95 -65 0 -65 0 0 -95z"/>
<path d="M11340 1621 c-97 -31 -178 -102 -218 -190 -22 -46 -27 -71 -27 -141
0 -77 3 -92 33 -152 36 -73 87 -124 161 -160 38 -19 62 -23 146 -23 90 0 105
3 153 28 102 54 161 136 183 253 29 154 -40 293 -180 361 -44 22 -71 28 -140
30 -47 1 -97 -1 -111 -6z m206 -147 c152 -94 139 -331 -21 -405 -126 -58 -273
21 -305 164 -11 45 -10 62 4 111 43 147 196 209 322 130z"/>
<path d="M12907 1616 c-20 -7 -53 -26 -72 -40 l-35 -27 0 35 0 36 -60 0 -60 0
0 -330 0 -330 60 0 60 0 0 198 c0 108 5 214 11 235 13 50 61 103 106 118 46
15 118 6 152 -18 56 -41 61 -67 61 -310 l0 -223 59 0 60 0 3 223 c2 122 0 242
-5 267 -10 61 -47 114 -103 146 -57 33 -175 43 -237 20z"/>
<path d="M15975 1617 c-89 -30 -156 -89 -202 -177 -25 -49 -28 -65 -28 -150 0
-84 3 -102 28 -152 35 -72 110 -140 185 -168 80 -31 205 -25 278 13 66 34 138
114 163 183 32 85 29 192 -8 269 -33 70 -101 137 -169 168 -58 26 -189 33
-247 14z m170 -118 c56 -16 129 -91 145 -149 40 -149 -67 -301 -212 -300 -115
1 -218 110 -218 232 0 117 103 226 215 228 17 0 48 -5 70 -11z"/>
<path d="M16795 1619 c-16 -6 -47 -24 -67 -40 -20 -16 -39 -29 -42 -29 -3 0
-6 16 -6 35 l0 35 -60 0 -60 0 0 -330 0 -330 60 0 60 0 0 185 c0 101 5 207 11
235 20 95 92 148 186 137 53 -6 90 -30 118 -78 18 -31 20 -56 23 -256 l4 -223
59 0 60 0 -3 253 c-3 223 -5 256 -22 287 -46 86 -107 122 -216 126 -41 2 -88
-1 -105 -7z"/>
<path d="M11920 1381 c0 -257 5 -292 55 -357 13 -17 48 -44 77 -58 94 -47 235
-30 306 36 l22 21 0 -36 0 -37 60 0 60 0 0 330 0 330 -60 0 -60 0 0 -177 c0
-244 -19 -311 -100 -354 -79 -43 -180 -14 -217 61 -22 42 -23 56 -23 262 l0
218 -60 0 -60 0 0 -239z"/>
<path d="M14405 1613 c-11 -2 -51 -13 -88 -24 -75 -22 -73 -18 -41 -95 l14
-33 47 22 c65 29 215 31 256 4 36 -23 67 -74 67 -109 0 -26 -2 -27 -32 -20
-18 4 -82 7 -143 7 -101 0 -115 -2 -168 -28 -74 -37 -107 -84 -114 -165 -13
-138 86 -231 247 -232 78 0 126 12 174 45 l36 24 0 -29 c0 -30 0 -30 60 -30
l60 0 0 243 c0 233 -1 244 -24 293 -28 61 -83 108 -142 123 -41 11 -168 13
-209 4z m243 -369 c37 -11 26 -92 -21 -143 -73 -79 -241 -81 -281 -2 -21 39
-20 59 4 98 27 46 91 64 195 58 44 -3 90 -8 103 -11z"/>
<path d="M15460 1280 l0 -330 60 0 60 0 0 330 0 330 -60 0 -60 0 0 -330z"/>
</g>
</svg>
