<svg xmlns="http://www.w3.org/2000/svg" viewBox="0 0 924.93 486.65"><defs><style>.cls-1{fill:#fff;}</style></defs><g id="Layer_2" data-name="Layer 2"><path class="cls-1" d="M276.41,177.63l25.71-90.84c2.88-.5,5.79-.87,8.73-1.13s6-.37,9.29-.37q3.19,0,7.89.47c3.12.31,5.88.65,8.25,1L293.11,221c-3.25.5-6.28.87-9.1,1.13s-5.54.37-8.16.37-5.07-.12-7.7-.37-5.76-.63-9.38-1.13l-43-134.2q3.19-.57,8.45-1t10.14-.47q3.93,0,8.63.47t8.26,1Z"/><path class="cls-1" d="M356.18,221c-2.88.5-5.51.87-7.88,1.13a66.55,66.55,0,0,1-6.95.37,75.49,75.49,0,0,1-7.79-.47q-4.41-.47-9.85-1.4l42-134q4.88-.55,9.11-.94c2.81-.25,5.66-.37,8.53-.37q3.57,0,7.79.37t9.67.94l41.48,134.2a121.76,121.76,0,0,1-18.77,1.69q-3.75,0-7.51-.37c-2.5-.26-5.19-.63-8.07-1.13l-7.13-26.09a82.1,82.1,0,0,1-10,2.25,59.94,59.94,0,0,1-9.48.75,60.7,60.7,0,0,1-8.82-.65,83.51,83.51,0,0,1-9.39-2Zm26.28-99.1-12.58,48.24q3.19.93,6,1.5a29.92,29.92,0,0,0,5.82.56,40.91,40.91,0,0,0,6.28-.47,53.43,53.43,0,0,0,6.48-1.41Z"/><path class="cls-1" d="M481.37,154.17q0,39.79,33.41,39.79a55.13,55.13,0,0,0,11.36-1.12,113.63,113.63,0,0,0,13-3.76,101.29,101.29,0,0,1,8.26,27.78q-5.45,2.07-10.13,3.38a75.76,75.76,0,0,1-9,2q-4.32.66-8.54.94t-8.73.28q-16,0-28.06-5.16a56,56,0,0,1-20.27-14.36,60.65,60.65,0,0,1-12.3-22,89.89,89.89,0,0,1-4.13-27.78,87,87,0,0,1,4.32-27.87,65.06,65.06,0,0,1,12.48-22.24,56.13,56.13,0,0,1,20.18-14.64,67.33,67.33,0,0,1,27.22-5.26,105.72,105.72,0,0,1,17.07,1.32,87.48,87.48,0,0,1,18,5.25,54.93,54.93,0,0,1-2.81,14.92,111.88,111.88,0,0,1-5.07,12.67c-2.5-.87-4.79-1.62-6.85-2.25a59.65,59.65,0,0,0-5.91-1.5q-2.82-.57-5.63-.85c-1.88-.18-3.88-.28-6-.28q-15.21,0-23.55,10.23T481.37,154.17Z"/><path class="cls-1" d="M580.85,222.49a99.94,99.94,0,0,1-16.71-1.69v-134c3.38-.5,6.45-.87,9.2-1.13s5.19-.37,7.32-.37,4.79.12,7.6.37,5.85.63,9.11,1.13v134A101.81,101.81,0,0,1,580.85,222.49Z"/><path class="cls-1" d="M619.89,86.79c2.75-.5,5.25-.87,7.51-1.13a59.47,59.47,0,0,1,6.57-.37,55.81,55.81,0,0,1,7,.47q3.66.46,6.29,1l43.55,73.58V86.79c3.25-.5,6.19-.87,8.82-1.13s5-.37,7.13-.37a64.74,64.74,0,0,1,6.76.37c2.37.26,4.88.63,7.51,1.13l-.19,134a44.23,44.23,0,0,1-5.44,1.13,54.26,54.26,0,0,1-16.15-.09c-2.5-.44-4.31-.78-5.44-1l-43.73-73.2v73.2a75.27,75.27,0,0,1-15,1.69,78,78,0,0,1-15.2-1.69Z"/><path class="cls-1" d="M765.73,221c-2.88.5-5.51.87-7.88,1.13a66.55,66.55,0,0,1-7,.37,75.49,75.49,0,0,1-7.79-.47c-2.94-.31-6.23-.78-9.85-1.4l42-134c3.25-.37,6.29-.68,9.1-.94s5.66-.37,8.54-.37q3.57,0,7.79.37t9.67.94l41.48,134.2a121.76,121.76,0,0,1-18.77,1.69c-2.5,0-5-.12-7.51-.37s-5.19-.63-8.07-1.13L810.4,194.9a82.51,82.51,0,0,1-10,2.25,59.94,59.94,0,0,1-9.48.75,60.7,60.7,0,0,1-8.82-.65,83.05,83.05,0,0,1-9.39-2ZM792,121.89l-12.58,48.24q3.2.93,6,1.5a29.89,29.89,0,0,0,5.81.56,41,41,0,0,0,6.29-.47,53.43,53.43,0,0,0,6.48-1.41Z"/><path class="cls-1" d="M297.24,326.52a71.79,71.79,0,0,1-1.69,14.64H259.33v26.65h47.11a68.55,68.55,0,0,1,1.69,14.27,70.73,70.73,0,0,1-1.69,14.83H226.11V262h79.2q.75,4.14,1.13,7.7a64.85,64.85,0,0,1,.38,6.76,88.76,88.76,0,0,1-1.51,14.83h-46v20.64h36.22A73.84,73.84,0,0,1,297.24,326.52Z"/><path class="cls-1" d="M362.37,259.7q35.47,0,53.87,17.74t18.39,52.84q0,35.66-18.76,52.27t-55.56,16.61q-9.39,0-18.11-.85t-17.18-2v-134c1.88-.25,4.25-.53,7.13-.84s6-.6,9.39-.85,6.85-.47,10.42-.66S359,259.7,362.37,259.7Zm-4.13,110a20.79,20.79,0,0,0,3,.19h3.56a51.76,51.76,0,0,0,13.8-1.78,25.81,25.81,0,0,0,11.17-6.29,31,31,0,0,0,7.41-12.2q2.71-7.69,2.72-19.71,0-11.82-2.81-19.71a33.15,33.15,0,0,0-7.42-12.48,26.49,26.49,0,0,0-10.79-6.57,42.59,42.59,0,0,0-12.95-2c-2.51,0-4.32,0-5.44.09s-1.88.1-2.26.1Z"/><path class="cls-1" d="M503.27,399q-15.19,0-25.24-4.13a36.52,36.52,0,0,1-15.86-11.92A47.52,47.52,0,0,1,454,364.06a121.19,121.19,0,0,1-2.34-25V262.33c3.63-.5,6.75-.84,9.38-1s5.13-.28,7.51-.28c2.13,0,4.47.09,7,.28s5.66.53,9.29,1v72.83a143.74,143.74,0,0,0,.75,15.95,34.17,34.17,0,0,0,2.72,10.7,12.21,12.21,0,0,0,5.54,5.91,21,21,0,0,0,9.38,1.78,21.69,21.69,0,0,0,9.48-1.78,12.07,12.07,0,0,0,5.63-5.91,32.49,32.49,0,0,0,2.63-10.7q.66-6.57.66-15.95V262.33q5.63-.75,9.48-1t7-.28q3.38,0,7.31.28t9.39,1V339.1a120.46,120.46,0,0,1-2.35,25,47.37,47.37,0,0,1-8.16,18.86,36.63,36.63,0,0,1-15.86,11.92Q518.47,399,503.27,399Z"/><path class="cls-1" d="M144.54,250.36c3.34,0,6.05,1.69,6.05,3.79v38.16c0,2.09-2.71,3.78-6.05,3.78s-6-1.69-6-3.78V254.15C138.49,252.05,141.2,250.36,144.54,250.36Z"/><path class="cls-1" d="M120.35,296.09c-3.34,0-6-1.69-6-3.78V254.15c0-2.1,2.71-3.79,6-3.79s6.05,1.69,6.05,3.79v38.16C126.4,294.4,123.69,296.09,120.35,296.09Z"/><path class="cls-1" d="M68,179.2H90.1v32.65h0V314.24c0,.21,0,.43,0,.63l0,.17c0,.15,0,.31.07.46a1.21,1.21,0,0,1,0,.18c0,.15.07.29.12.43l.06.18c.06.14.11.29.17.43l0,0L127,395.41a6,6,0,0,0,11,0l36.3-78.64,0-.06a5.87,5.87,0,0,0,.24-.63v0a6.56,6.56,0,0,0,.17-.67l0-.21.06-.47c0-.09,0-.17,0-.26s0-.13,0-.2V179.15h22.05V140.4H153.7V117.26H165V86.66H100v30.6h11.31V140.4H68Zm41.42-71.49V96.36H155.3v11.35Zm34.21,9.55V140.4h-22.3V117.26Zm-23,235.6c3.59-3.09,7.25-4.61,11.14-4.61,5.29,0,9.89,2.83,12.42,4.75l-11.75,25.45Zm-15-32.57h53.69l-9.95,21.56a32.42,32.42,0,0,0-17.57-5.7,27.76,27.76,0,0,0-16.34,5.44Zm-3.41-116.11h0v-25h60.49v129H102.2V240h30.4v-9.63H102.2V217.4h18.39v-9.63H102.2v-2.44C102.19,205.15,102.19,204.74,102.19,204.18ZM77.75,168.62,78,151.27l108.67-.22v17.57H77.75Z"/></g></svg>